<?xml version="1.0" encoding="UTF-8"?>
<svg version="1.1" xmlns="http://www.w3.org/2000/svg" width="53" height="72">
<path d="M0 0 C5.46197503 4.33776269 8.8505488 9.44427404 9.875 16.375 C10.51335832 26.44027764 9.25036953 33.46437234 2.73046875 41.35546875 C-2.128931 46.64454174 -6.21755477 47.89862447 -13.125 48.375 C-13.125 52.665 -13.125 56.955 -13.125 61.375 C-10.815 61.375 -8.505 61.375 -6.125 61.375 C-5.74281233 63.03114657 -5.41104898 64.69957024 -5.125 66.375 C-6.125 67.375 -6.125 67.375 -8.16625977 67.48852539 C-9.04080811 67.48328857 -9.91535645 67.47805176 -10.81640625 67.47265625 C-11.76064453 67.46943359 -12.70488281 67.46621094 -13.67773438 67.46289062 C-14.67095703 67.45451172 -15.66417969 67.44613281 -16.6875 67.4375 C-17.68458984 67.43298828 -18.68167969 67.42847656 -19.70898438 67.42382812 C-22.18104849 67.41200007 -24.65299518 67.39551849 -27.125 67.375 C-27.50718767 65.71885343 -27.83895102 64.05042976 -28.125 62.375 C-27.125 61.375 -27.125 61.375 -23.5625 61.3125 C-22.428125 61.333125 -21.29375 61.35375 -20.125 61.375 C-20.125 57.085 -20.125 52.795 -20.125 48.375 C-21.259375 48.354375 -22.39375 48.33375 -23.5625 48.3125 C-30.04818762 47.48453988 -34.79308351 43.30512785 -38.76953125 38.30859375 C-43.94226015 30.4526049 -44.04441112 21.79952558 -42.5 12.6875 C-39.39136864 5.19852445 -34.58776845 -0.27466272 -27.125 -3.625 C-17.84839233 -6.00053324 -7.99721631 -5.48040149 0 0 Z M-27.9375 11.5 C-30.81432143 15.28096531 -31.79939267 18.65786812 -32.125 23.375 C-31.24105215 27.9715288 -29.42932528 31.07067472 -26.125 34.375 C-21.35679669 37.17982548 -17.63578614 37.8470064 -12.2734375 37.0234375 C-7.55603607 35.59963998 -4.81984266 32.41726399 -2.125 28.375 C-0.81251725 22.31738732 -0.97583477 18.93852524 -4.125 13.375 C-7.43930559 8.98841907 -10.56287292 7.38728961 -15.8515625 6.46484375 C-20.82215091 6.26841156 -24.11597651 8.61262669 -27.9375 11.5 Z " fill="#773BD1" transform="translate(43.125,4.625)"/>
<path d="M0 0 C1.38125018 2.76250036 1.19079306 4.94731099 1 8 C-1 10 -1 10 -4.5 10.25 C-8 10 -8 10 -10 8 C-10.32954432 4.90228335 -10.45334601 2.82668977 -8.9375 0.0625 C-5.81857551 -1.64787795 -3.34442199 -0.80513863 0 0 Z " fill="#8048D4" transform="translate(31,22)"/>
</svg>
